<?xml version="1.0" standalone="no"?>
<!DOCTYPE svg PUBLIC "-//W3C//DTD SVG 20010904//EN"
 "http://www.w3.org/TR/2001/REC-SVG-20010904/DTD/svg10.dtd">
<svg version="1.0" xmlns="http://www.w3.org/2000/svg"
 width="218.000000pt" height="217.000000pt" viewBox="0 0 218.000000 217.000000"
 preserveAspectRatio="xMidYMid meet">

<g transform="translate(0.000000,217.000000) scale(0.100000,-0.100000)"
fill="#000000" stroke="none">
<path d="M925 2150 c-139 -22 -309 -88 -428 -167 -466 -309 -620 -921 -356
-1412 238 -445 761 -665 1247 -525 499 143 829 628 774 1141 -28 267 -138 492
-333 679 -139 134 -301 221 -499 269 -78 19 -320 28 -405 15z m275 -90 c401
-50 717 -317 837 -707 25 -81 27 -102 27 -268 1 -159 -2 -189 -22 -259 -105
-361 -394 -632 -757 -707 -115 -24 -225 -25 -272 -2 -67 32 -89 82 -156 365
-14 59 -36 132 -50 161 -49 108 -143 169 -316 208 -269 59 -322 80 -361 145
-19 29 -22 49 -22 116 6 444 343 847 778 932 138 27 197 30 314 16z"/>
</g>
</svg>